<?xml version="1.0" encoding="utf-8"?>
<!-- Generator: Adobe Illustrator 16.0.2, SVG Export Plug-In . SVG Version: 6.00 Build 0)  -->
<!DOCTYPE svg PUBLIC "-//W3C//DTD SVG 1.1//EN" "http://www.w3.org/Graphics/SVG/1.1/DTD/svg11.dtd">
<svg version="1.1" id="Layer_1" xmlns="http://www.w3.org/2000/svg" xmlns:xlink="http://www.w3.org/1999/xlink" x="0px" y="0px"
	 width="608.5px" height="87px" viewBox="3.5 352.5 608.5 87" enable-background="new 3.5 352.5 608.5 87" xml:space="preserve">
<title  class="ng-tns-c2-1">Skopenow</title>
<polygon style="fill: #555" points="132.646,361.301 122.701,361.301 83.53,402.029 83.53,361.301 75.838,361.301 75.838,429.517 83.53,429.517 
	83.53,411.197 98.052,396.48 124.259,429.517 133.912,429.517 103.407,391.125 "/>
<path style="fill: #555" d="M54.736,398.678c-3.603-2.991-9.209-5.355-16.817-7.039c-3.138-0.612-6.229-1.444-9.25-2.49
	c-2.022-0.675-3.928-1.661-5.647-2.921c-1.227-0.925-2.187-2.159-2.782-3.575c-0.531-1.398-0.791-2.886-0.765-4.382
	c-0.004-1.521,0.349-3.021,1.029-4.381c0.695-1.383,1.693-2.59,2.921-3.533c1.383-1.031,2.93-1.822,4.576-2.337
	c1.939-0.607,3.963-0.902,5.995-0.876c3.413-0.018,6.803,0.562,10.016,1.711c3.496,1.332,6.741,3.246,9.598,5.662l4.493-5.954
	c-3.262-2.605-6.907-4.689-10.809-6.176c-4.212-1.454-8.647-2.15-13.103-2.059c-3.043-0.034-6.069,0.436-8.958,1.391
	c-2.602,0.871-5.023,2.204-7.15,3.937c-1.969,1.602-3.564,3.615-4.674,5.898c-1.116,2.345-1.683,4.914-1.655,7.511
	c-0.05,2.541,0.424,5.064,1.392,7.414c0.938,2.127,2.368,4.001,4.173,5.467c2.163,1.714,4.593,3.063,7.191,3.992
	c3.319,1.24,6.728,2.226,10.196,2.949c2.999,0.614,5.955,1.428,8.847,2.434c1.939,0.635,3.766,1.574,5.411,2.782
	c1.212,0.894,2.171,2.087,2.781,3.464c0.523,1.408,0.76,2.908,0.696,4.409c0.074,3.339-1.483,6.505-4.173,8.485
	c-3.239,2.3-7.161,3.438-11.129,3.227c-4.293,0.075-8.556-0.739-12.519-2.392c-3.937-1.836-7.554-4.292-10.711-7.275l-4.826,5.647
	c3.771,3.487,8.145,6.259,12.908,8.179c4.774,1.811,9.847,2.707,14.953,2.644c3.174,0.019,6.331-0.45,9.361-1.392
	c2.677-0.815,5.167-2.148,7.331-3.922c4.203-3.484,6.598-8.688,6.51-14.147C60.368,406.294,58.367,401.727,54.736,398.678z"/>
<polygon style="fill: #555" points="295.157,398.622 332.381,398.622 332.381,391.611 295.157,391.611 295.157,368.312 336.762,368.312 
	336.762,361.301 287.465,361.301 287.465,429.517 337.263,429.517 337.263,422.491 295.157,422.491 "/>
<path style="fill: #555" d="M196.535,370.607c-3.109-3.253-6.835-5.854-10.961-7.651c-9.087-3.802-19.318-3.802-28.404,0
	c-4.153,1.814-7.896,4.449-11.003,7.748c-3.055,3.285-5.453,7.124-7.066,11.309c-1.693,4.296-2.553,8.875-2.531,13.493
	c-0.021,4.614,0.823,9.191,2.489,13.493c3.234,8.471,9.756,15.273,18.083,18.862c9.087,3.802,19.318,3.802,28.404,0
	c4.15-1.819,7.893-4.454,11.003-7.748c3.068-3.264,5.486-7.084,7.122-11.254c3.344-8.684,3.344-18.3,0-26.985
	C202.062,377.683,199.636,373.853,196.535,370.607z M196.132,406.412c-1.278,3.295-3.166,6.319-5.564,8.916
	c-2.338,2.566-5.179,4.627-8.346,6.051c-3.393,1.485-7.063,2.234-10.767,2.198c-3.709,0.038-7.383-0.73-10.766-2.254
	c-6.525-2.909-11.615-8.31-14.133-14.995c-1.365-3.521-2.06-7.268-2.045-11.044c-0.032-3.747,0.643-7.465,1.989-10.961
	c1.278-3.295,3.166-6.32,5.563-8.916c2.368-2.557,5.238-4.597,8.43-5.995c3.394-1.486,7.063-2.235,10.767-2.198
	c3.708-0.037,7.381,0.727,10.767,2.239c6.517,2.933,11.594,8.345,14.104,15.037c1.348,3.516,2.026,7.252,2.003,11.017
	C198.155,399.234,197.475,402.934,196.132,406.412z"/>
<path style="fill: #555" d="M265.07,367.102c-2.395-1.934-5.138-3.388-8.082-4.285c-3.396-1.048-6.935-1.56-10.488-1.516h-25.524v68.16h7.691v-24.023
	l0,0v-6.955l0,0V368.41h17.305c5.563,0,10.006,1.251,13.325,3.755c3.366,2.504,5.036,6.218,5.036,11.128
	c0.033,2.135-0.414,4.251-1.308,6.19c-0.888,1.865-2.197,3.499-3.825,4.771c-1.769,1.398-3.79,2.443-5.954,3.074
	c-2.487,0.737-5.07,1.098-7.664,1.071h-7.831v6.955h7.483c3.493,0.029,6.974-0.438,10.335-1.392c3.08-0.84,5.974-2.256,8.527-4.172
	c2.426-1.859,4.407-4.235,5.8-6.956c1.476-3.03,2.209-6.368,2.143-9.737c0.052-3.131-0.564-6.237-1.809-9.111
	C269.08,371.316,267.31,368.956,265.07,367.102z"/>
<polygon style="fill: #555" points="591.51,361.301 572.009,418.109 553.3,361.106 546.97,361.106 528.261,418.109 508.774,361.301 500.386,361.301 
	524.757,430.003 531.183,430.003 549.989,374.655 568.698,430.003 575.236,430.003 599.593,361.301 "/>
<polygon style="fill: #555" points="402.32,415.968 359.339,361.301 352.133,361.301 352.133,429.517 359.631,429.517 359.631,373.584 403.683,429.517 
	409.818,429.517 409.818,361.301 402.32,361.301 "/>
<path style="fill: #555" d="M484.723,370.607c-3.109-3.253-6.835-5.854-10.961-7.651c-9.087-3.802-19.318-3.802-28.404,0
	c-4.153,1.814-7.896,4.449-11.003,7.748c-3.068,3.264-5.486,7.083-7.122,11.253c-1.693,4.296-2.553,8.875-2.531,13.493
	c-0.021,4.614,0.823,9.19,2.489,13.493c3.234,8.471,9.756,15.274,18.083,18.862c9.087,3.802,19.318,3.802,28.404,0
	c4.15-1.819,7.893-4.454,11.003-7.748c3.068-3.264,5.486-7.083,7.122-11.253c1.693-4.297,2.553-8.875,2.532-13.493
	c0.021-4.614-0.824-9.19-2.49-13.493C490.234,377.648,487.814,373.838,484.723,370.607z M484.292,406.412
	c-1.277,3.295-3.165,6.319-5.563,8.916c-2.368,2.557-5.237,4.598-8.43,5.995c-3.393,1.485-7.063,2.234-10.767,2.198
	c-3.709,0.038-7.383-0.73-10.766-2.254c-6.493-2.908-11.56-8.285-14.077-14.939c-1.351-3.524-2.03-7.271-2.003-11.044
	c-0.028-3.747,0.651-7.466,2.003-10.961c1.278-3.295,3.166-6.32,5.563-8.916c2.368-2.557,5.238-4.597,8.43-5.995
	c3.394-1.486,7.063-2.235,10.767-2.198c3.691-0.02,7.344,0.753,10.711,2.267c6.522,2.92,11.609,8.323,14.132,15.009
	c1.348,3.516,2.027,7.252,2.004,11.017C486.316,399.234,485.636,402.934,484.292,406.412z"/>
</svg>
